<svg width="1011" height="750" xmlns="http://www.w3.org/2000/svg" xmlns:xlink="http://www.w3.org/1999/xlink" xml:space="preserve" overflow="hidden"><g transform="translate(-228 -210)"><path d="M262.5 443.5C251.708 465.557 240.916 487.614 238.218 505.447 235.519 523.28 240.915 536.89 246.312 550.5" stroke="#FBE3D6" stroke-width="6.875" stroke-linecap="round" stroke-linejoin="round" stroke-miterlimit="10" fill="none" fill-rule="evenodd"/><path d="M275.325 449.5C275.477 466.81 275.629 484.119 275.325 500.953 275.021 517.786 274.26 534.143 273.5 550.5" stroke="#FBE3D6" stroke-width="6.875" stroke-linecap="round" stroke-linejoin="round" stroke-miterlimit="10" fill="none" fill-rule="evenodd"/><path d="M231.5 434.5C231.5 415.722 245.827 400.5 263.5 400.5 281.173 400.5 295.5 415.722 295.5 434.5 295.5 453.278 281.173 468.5 263.5 468.5 245.827 468.5 231.5 453.278 231.5 434.5Z" stroke="#FBE3D6" stroke-width="6.875" stroke-miterlimit="8" fill="#FFC000" fill-rule="evenodd"/><path d="M329.5 443.5C318.708 465.557 307.916 487.614 305.218 505.447 302.519 523.28 307.915 536.89 313.312 550.5" stroke="#FBE3D6" stroke-width="6.875" stroke-linecap="round" stroke-linejoin="round" stroke-miterlimit="10" fill="none" fill-rule="evenodd"/><path d="M342.325 449.5C342.477 466.81 342.629 484.119 342.325 500.953 342.021 517.786 341.26 534.143 340.5 550.5" stroke="#FBE3D6" stroke-width="6.875" stroke-linecap="round" stroke-linejoin="round" stroke-miterlimit="10" fill="none" fill-rule="evenodd"/><path d="M298.5 434.5C298.5 415.722 312.827 400.5 330.5 400.5 348.173 400.5 362.5 415.722 362.5 434.5 362.5 453.278 348.173 468.5 330.5 468.5 312.827 468.5 298.5 453.278 298.5 434.5Z" stroke="#FBE3D6" stroke-width="6.875" stroke-miterlimit="8" fill="#FFC000" fill-rule="evenodd"/><path d="M402.5 443.5C391.708 465.557 380.916 487.614 378.217 505.447 375.519 523.28 380.915 536.89 386.312 550.5" stroke="#FBE3D6" stroke-width="6.875" stroke-linecap="round" stroke-linejoin="round" stroke-miterlimit="10" fill="none" fill-rule="evenodd"/><path d="M415.325 449.5C415.477 466.81 415.629 484.119 415.325 500.953 415.021 517.786 414.26 534.143 413.5 550.5" stroke="#FBE3D6" stroke-width="6.875" stroke-linecap="round" stroke-linejoin="round" stroke-miterlimit="10" fill="none" fill-rule="evenodd"/><path d="M371.5 434.5C371.5 415.722 385.827 400.5 403.5 400.5 421.173 400.5 435.5 415.722 435.5 434.5 435.5 453.278 421.173 468.5 403.5 468.5 385.827 468.5 371.5 453.278 371.5 434.5Z" stroke="#FBE3D6" stroke-width="6.875" stroke-miterlimit="8" fill="#FFC000" fill-rule="evenodd"/><path d="M401.5 677.5C411.861 655.237 422.221 632.974 424.811 614.974 427.401 596.974 422.221 583.237 417.041 569.5" stroke="#FBE3D6" stroke-width="6.875" stroke-linecap="round" stroke-linejoin="round" stroke-miterlimit="10" fill="none" fill-rule="evenodd"/><path d="M387.675 670.5C387.523 653.19 387.371 635.881 387.675 619.047 387.979 602.214 388.74 585.857 389.5 569.5" stroke="#FBE3D6" stroke-width="6.875" stroke-linecap="round" stroke-linejoin="round" stroke-miterlimit="10" fill="none" fill-rule="evenodd"/><path d="M432.5 686.5C432.5 705.278 417.949 720.5 400 720.5 382.051 720.5 367.5 705.278 367.5 686.5 367.5 667.722 382.051 652.5 400 652.5 417.949 652.5 432.5 667.722 432.5 686.5Z" stroke="#FBE3D6" stroke-width="6.875" stroke-miterlimit="8" fill="#FFC000" fill-rule="evenodd"/><path d="M334.5 677.5C345.292 655.237 356.084 632.974 358.783 614.974 361.481 596.974 356.085 583.237 350.688 569.5" stroke="#FBE3D6" stroke-width="6.875" stroke-linecap="round" stroke-linejoin="round" stroke-miterlimit="10" fill="none" fill-rule="evenodd"/><path d="M320.675 670.5C320.523 653.19 320.371 635.881 320.675 619.047 320.979 602.214 321.74 585.857 322.5 569.5" stroke="#FBE3D6" stroke-width="6.875" stroke-linecap="round" stroke-linejoin="round" stroke-miterlimit="10" fill="none" fill-rule="evenodd"/><path d="M365.5 686.5C365.5 705.278 350.949 720.5 333 720.5 315.051 720.5 300.5 705.278 300.5 686.5 300.5 667.722 315.051 652.5 333 652.5 350.949 652.5 365.5 667.722 365.5 686.5Z" stroke="#FBE3D6" stroke-width="6.875" stroke-miterlimit="8" fill="#FFC000" fill-rule="evenodd"/><path d="M267.5 677.5C278.292 655.237 289.084 632.974 291.783 614.974 294.481 596.974 289.085 583.237 283.688 569.5" stroke="#FBE3D6" stroke-width="6.875" stroke-linecap="round" stroke-linejoin="round" stroke-miterlimit="10" fill="none" fill-rule="evenodd"/><path d="M253.675 670.5C253.523 653.19 253.371 635.881 253.675 619.047 253.979 602.214 254.74 585.857 255.5 569.5" stroke="#FBE3D6" stroke-width="6.875" stroke-linecap="round" stroke-linejoin="round" stroke-miterlimit="10" fill="none" fill-rule="evenodd"/><path d="M298.5 686.5C298.5 705.278 284.173 720.5 266.5 720.5 248.827 720.5 234.5 705.278 234.5 686.5 234.5 667.722 248.827 652.5 266.5 652.5 284.173 652.5 298.5 667.722 298.5 686.5Z" stroke="#FBE3D6" stroke-width="6.875" stroke-miterlimit="8" fill="#FFC000" fill-rule="evenodd"/><path d="M454 566.5C454 489.456 484.669 427 522.5 427 560.331 427 591 489.456 591 566.5 591 643.544 560.331 706 522.5 706 484.669 706 454 643.544 454 566.5Z" fill="#F2CFEE" fill-rule="evenodd"/><path d="M449.531 420.98C441.137 446.114 431.903 497.263 434.422 545.324 436.94 593.386 453.309 682.014 464.641 709.353 475.973 736.691 498.638 722.581 502.415 709.353 506.193 696.124 491.083 665.7 487.305 629.984 483.528 594.268 475.973 527.246 479.751 495.058 483.528 462.87 509.13 453.61 509.97 436.854 510.81 420.099 494.021 399.375 484.787 394.524 475.554 389.674 457.926 395.847 449.531 420.98Z" fill="#6F2DBD" fill-rule="evenodd"/><path d="M15.3269 27.9806C7.04292 53.1139-2.06912 104.263 0.416016 152.324 2.90116 200.386 19.0546 289.014 30.2377 316.353 41.4208 343.691 63.7871 329.581 67.5148 316.353 71.2425 303.125 56.3316 272.7 52.6039 236.984 48.8762 201.268 41.4208 134.246 45.1485 102.058 48.8762 69.8696 74.1417 60.61 74.9702 43.8543 75.7987 27.0986 59.2309 6.37489 50.1188 1.52446 41.0068-3.32598 23.6108 2.84726 15.3269 27.9806Z" fill="#6F2DBD" fill-rule="evenodd" transform="matrix(-1 0 0 1 612 393)"/><path d="M656.5 443.5C645.708 465.557 634.916 487.614 632.217 505.447 629.519 523.28 634.915 536.89 640.312 550.5" stroke="#FBE3D6" stroke-width="6.875" stroke-linecap="round" stroke-linejoin="round" stroke-miterlimit="10" fill="none" fill-rule="evenodd"/><path d="M669.325 449.5C669.477 466.81 669.629 484.119 669.325 500.953 669.021 517.786 668.26 534.143 667.5 550.5" stroke="#FBE3D6" stroke-width="6.875" stroke-linecap="round" stroke-linejoin="round" stroke-miterlimit="10" fill="none" fill-rule="evenodd"/><path d="M625.5 434.5C625.5 415.722 639.827 400.5 657.5 400.5 675.173 400.5 689.5 415.722 689.5 434.5 689.5 453.278 675.173 468.5 657.5 468.5 639.827 468.5 625.5 453.278 625.5 434.5Z" stroke="#FBE3D6" stroke-width="6.875" stroke-miterlimit="8" fill="#FFC000" fill-rule="evenodd"/><path d="M723.5 443.5C712.708 465.557 701.916 487.614 699.218 505.447 696.519 523.28 701.915 536.89 707.312 550.5" stroke="#FBE3D6" stroke-width="6.875" stroke-linecap="round" stroke-linejoin="round" stroke-miterlimit="10" fill="none" fill-rule="evenodd"/><path d="M736.325 449.5C736.477 466.81 736.629 484.119 736.325 500.953 736.021 517.786 735.26 534.143 734.5 550.5" stroke="#FBE3D6" stroke-width="6.875" stroke-linecap="round" stroke-linejoin="round" stroke-miterlimit="10" fill="none" fill-rule="evenodd"/><path d="M692.5 434.5C692.5 415.722 706.827 400.5 724.5 400.5 742.173 400.5 756.5 415.722 756.5 434.5 756.5 453.278 742.173 468.5 724.5 468.5 706.827 468.5 692.5 453.278 692.5 434.5Z" stroke="#FBE3D6" stroke-width="6.875" stroke-miterlimit="8" fill="#FFC000" fill-rule="evenodd"/><path d="M1056.5 429.5C1045.71 451.557 1034.92 473.614 1032.22 491.447 1029.52 509.281 1034.92 522.89 1040.31 536.5" stroke="#FBE3D6" stroke-width="6.875" stroke-linecap="round" stroke-linejoin="round" stroke-miterlimit="10" fill="none" fill-rule="evenodd"/><path d="M1069.32 435.5C1069.48 452.81 1069.63 470.119 1069.32 486.953 1069.02 503.786 1068.26 520.143 1067.5 536.5" stroke="#FBE3D6" stroke-width="6.875" stroke-linecap="round" stroke-linejoin="round" stroke-miterlimit="10" fill="none" fill-rule="evenodd"/><path d="M1025.5 420.5C1025.5 401.722 1039.83 386.5 1057.5 386.5 1075.17 386.5 1089.5 401.722 1089.5 420.5 1089.5 439.278 1075.17 454.5 1057.5 454.5 1039.83 454.5 1025.5 439.278 1025.5 420.5Z" stroke="#FBE3D6" stroke-width="6.875" stroke-miterlimit="8" fill="#FFC000" fill-rule="evenodd"/><path d="M1129.5 429.5C1118.71 451.557 1107.92 473.614 1105.22 491.447 1102.52 509.281 1107.92 522.89 1113.31 536.5" stroke="#FBE3D6" stroke-width="6.875" stroke-linecap="round" stroke-linejoin="round" stroke-miterlimit="10" fill="none" fill-rule="evenodd"/><path d="M1142.32 435.5C1142.48 452.81 1142.63 470.119 1142.32 486.953 1142.02 503.786 1141.26 520.143 1140.5 536.5" stroke="#FBE3D6" stroke-width="6.875" stroke-linecap="round" stroke-linejoin="round" stroke-miterlimit="10" fill="none" fill-rule="evenodd"/><path d="M1098.5 420.5C1098.5 401.722 1112.83 386.5 1130.5 386.5 1148.17 386.5 1162.5 401.722 1162.5 420.5 1162.5 439.278 1148.17 454.5 1130.5 454.5 1112.83 454.5 1098.5 439.278 1098.5 420.5Z" stroke="#FBE3D6" stroke-width="6.875" stroke-miterlimit="8" fill="#FFC000" fill-rule="evenodd"/><path d="M1128.5 663.5C1138.86 641.237 1149.22 618.974 1151.81 600.974 1154.4 582.974 1149.22 569.237 1144.04 555.5" stroke="#FBE3D6" stroke-width="6.875" stroke-linecap="round" stroke-linejoin="round" stroke-miterlimit="10" fill="none" fill-rule="evenodd"/><path d="M1114.68 656.5C1114.52 639.19 1114.37 621.881 1114.68 605.047 1114.98 588.214 1115.74 571.857 1116.5 555.5" stroke="#FBE3D6" stroke-width="6.875" stroke-linecap="round" stroke-linejoin="round" stroke-miterlimit="10" fill="none" fill-rule="evenodd"/><path d="M1158.5 672.5C1158.5 691.278 1144.17 706.5 1126.5 706.5 1108.83 706.5 1094.5 691.278 1094.5 672.5 1094.5 653.722 1108.83 638.5 1126.5 638.5 1144.17 638.5 1158.5 653.722 1158.5 672.5Z" stroke="#FBE3D6" stroke-width="6.875" stroke-miterlimit="8" fill="#FFC000" fill-rule="evenodd"/><path d="M1061.5 663.5C1072.29 641.237 1083.08 618.974 1085.78 600.974 1088.48 582.974 1083.08 569.237 1077.69 555.5" stroke="#FBE3D6" stroke-width="6.875" stroke-linecap="round" stroke-linejoin="round" stroke-miterlimit="10" fill="none" fill-rule="evenodd"/><path d="M1047.68 656.5C1047.52 639.19 1047.37 621.881 1047.68 605.047 1047.98 588.214 1048.74 571.857 1049.5 555.5" stroke="#FBE3D6" stroke-width="6.875" stroke-linecap="round" stroke-linejoin="round" stroke-miterlimit="10" fill="none" fill-rule="evenodd"/><path d="M1092.5 672.5C1092.5 691.278 1077.95 706.5 1060 706.5 1042.05 706.5 1027.5 691.278 1027.5 672.5 1027.5 653.722 1042.05 638.5 1060 638.5 1077.95 638.5 1092.5 653.722 1092.5 672.5Z" stroke="#FBE3D6" stroke-width="6.875" stroke-miterlimit="8" fill="#FFC000" fill-rule="evenodd"/><path d="M728.5 677.5C739.292 655.237 750.084 632.974 752.782 614.974 755.481 596.974 750.085 583.237 744.688 569.5" stroke="#FBE3D6" stroke-width="6.875" stroke-linecap="round" stroke-linejoin="round" stroke-miterlimit="10" fill="none" fill-rule="evenodd"/><path d="M714.675 670.5C714.523 653.19 714.371 635.881 714.675 619.047 714.979 602.214 715.74 585.857 716.5 569.5" stroke="#FBE3D6" stroke-width="6.875" stroke-linecap="round" stroke-linejoin="round" stroke-miterlimit="10" fill="none" fill-rule="evenodd"/><path d="M759.5 686.5C759.5 705.278 744.949 720.5 727 720.5 709.051 720.5 694.5 705.278 694.5 686.5 694.5 667.722 709.051 652.5 727 652.5 744.949 652.5 759.5 667.722 759.5 686.5Z" stroke="#FBE3D6" stroke-width="6.875" stroke-miterlimit="8" fill="#FFC000" fill-rule="evenodd"/><path d="M655.5 677.5C666.292 655.237 677.084 632.974 679.783 614.974 682.481 596.974 677.085 583.237 671.688 569.5" stroke="#FBE3D6" stroke-width="6.875" stroke-linecap="round" stroke-linejoin="round" stroke-miterlimit="10" fill="none" fill-rule="evenodd"/><path d="M641.675 670.5C641.523 653.19 641.371 635.881 641.675 619.047 641.979 602.214 642.74 585.857 643.5 569.5" stroke="#FBE3D6" stroke-width="6.875" stroke-linecap="round" stroke-linejoin="round" stroke-miterlimit="10" fill="none" fill-rule="evenodd"/><path d="M686.5 686.5C686.5 705.278 671.949 720.5 654 720.5 636.051 720.5 621.5 705.278 621.5 686.5 621.5 667.722 636.051 652.5 654 652.5 671.949 652.5 686.5 667.722 686.5 686.5Z" stroke="#FBE3D6" stroke-width="6.875" stroke-miterlimit="8" fill="#FFC000" fill-rule="evenodd"/><path d="M820.5 380.494C820.5 387.119 837.961 392.489 859.5 392.489 881.039 392.489 898.5 387.119 898.5 380.494L898.5 720.506C898.5 727.13 881.039 732.5 859.5 732.5 837.961 732.5 820.5 727.13 820.5 720.506Z" fill="#3366FF" fill-rule="evenodd"/><path d="M820.5 380.494C820.5 373.87 837.961 368.5 859.5 368.5 881.039 368.5 898.5 373.87 898.5 380.494 898.5 387.119 881.039 392.489 859.5 392.489 837.961 392.489 820.5 387.119 820.5 380.494Z" fill="#85A3FF" fill-rule="evenodd"/><path d="M898.5 380.494C898.5 387.119 881.039 392.489 859.5 392.489 837.961 392.489 820.5 387.119 820.5 380.494 820.5 373.87 837.961 368.5 859.5 368.5 881.039 368.5 898.5 373.87 898.5 380.494L898.5 720.506C898.5 727.13 881.039 732.5 859.5 732.5 837.961 732.5 820.5 727.13 820.5 720.506L820.5 380.494" stroke="#3366FF" stroke-width="6.875" stroke-miterlimit="8" fill="none" fill-rule="evenodd"/><path d="M758.779 397.482C760.514 406.365 779.01 410.229 800.091 406.112 821.172 401.995 836.856 391.456 835.121 382.573L898.603 707.641C900.338 716.524 884.655 727.063 863.573 731.18 842.492 735.297 823.996 731.433 822.261 722.55Z" fill="#3366FF" fill-rule="evenodd"/><path d="M758.779 397.482C757.044 388.599 772.727 378.061 793.809 373.944 814.89 369.827 833.386 373.69 835.121 382.573 836.856 391.456 821.172 401.995 800.091 406.112 779.01 410.229 760.514 406.365 758.779 397.482Z" fill="#85A3FF" fill-rule="evenodd"/><path d="M835.121 382.573C836.856 391.456 821.172 401.995 800.091 406.112 779.01 410.229 760.514 406.365 758.779 397.482 757.044 388.599 772.727 378.061 793.809 373.944 814.89 369.827 833.386 373.69 835.121 382.573L898.603 707.641C900.338 716.524 884.655 727.063 863.573 731.18 842.492 735.297 823.996 731.433 822.261 722.55L758.779 397.482" stroke="#3366FF" stroke-width="6.875" stroke-miterlimit="8" fill="none" fill-rule="evenodd"/><path d="M873.5 353.494C873.5 360.119 890.961 365.489 912.5 365.489 934.039 365.489 951.5 360.119 951.5 353.494L951.5 693.505C951.5 700.13 934.039 705.5 912.5 705.5 890.961 705.5 873.5 700.13 873.5 693.505Z" fill="#3366FF" fill-rule="evenodd"/><path d="M873.5 353.494C873.5 346.87 890.961 341.5 912.5 341.5 934.039 341.5 951.5 346.87 951.5 353.494 951.5 360.119 934.039 365.489 912.5 365.489 890.961 365.489 873.5 360.119 873.5 353.494Z" fill="#85A3FF" fill-rule="evenodd"/><path d="M951.5 353.494C951.5 360.119 934.039 365.489 912.5 365.489 890.961 365.489 873.5 360.119 873.5 353.494 873.5 346.87 890.961 341.5 912.5 341.5 934.039 341.5 951.5 346.87 951.5 353.494L951.5 693.505C951.5 700.13 934.039 705.5 912.5 705.5 890.961 705.5 873.5 700.13 873.5 693.505L873.5 353.494" stroke="#3366FF" stroke-width="6.875" stroke-miterlimit="8" fill="none" fill-rule="evenodd"/><path d="M940.055 342.797C938.95 351.09 955.315 360.113 976.606 362.95 997.897 365.787 1016.05 361.364 1017.16 353.071L973.082 683.835C971.977 692.128 953.821 696.551 932.53 693.714 911.239 690.877 894.875 681.854 895.98 673.561Z" fill="#3366FF" fill-rule="evenodd"/><path d="M940.055 342.797C941.161 334.504 959.316 330.081 980.608 332.918 1001.9 335.755 1018.26 344.778 1017.16 353.071 1016.05 361.364 997.897 365.787 976.606 362.95 955.315 360.113 938.95 351.09 940.055 342.797Z" fill="#85A3FF" fill-rule="evenodd"/><path d="M1017.16 353.071C1016.05 361.364 997.897 365.787 976.606 362.95 955.315 360.113 938.95 351.09 940.055 342.797 941.161 334.504 959.316 330.081 980.608 332.918 1001.9 335.755 1018.26 344.778 1017.16 353.071L973.082 683.835C971.977 692.128 953.821 696.551 932.53 693.714 911.239 690.877 894.875 681.854 895.98 673.561L940.055 342.797" stroke="#3366FF" stroke-width="6.875" stroke-miterlimit="8" fill="none" fill-rule="evenodd"/><path d="M854 381C854 363.327 867.655 349 884.5 349 901.345 349 915 363.327 915 381 915 398.673 901.345 413 884.5 413 867.655 413 854 398.673 854 381Z" fill="#FF9966" fill-rule="evenodd"/><path d="M0 49.7975C15.6607 21.5644 31.3214-6.66804 44.5929 1.39861 57.8644 9.46527 68.7473 53.8305 79.6302 98.1963" stroke="#002060" stroke-width="6.875" stroke-miterlimit="8" fill="none" fill-rule="evenodd" transform="matrix(0.903713 0.428138 0.428138 -0.903713 781.991 803.704)"/><path d="M797.95 408.214C797.172 415.927 813.866 423.926 835.237 426.082 856.608 428.238 874.563 423.733 875.341 416.021L841.627 750.239C840.849 757.951 822.894 762.456 801.523 760.3 780.152 758.144 763.458 750.144 764.236 742.432Z" fill="#3366FF" fill-rule="evenodd"/><path d="M797.95 408.214C798.728 400.502 816.683 395.997 838.054 398.153 859.425 400.309 876.119 408.308 875.341 416.021 874.563 423.733 856.608 428.238 835.237 426.082 813.866 423.926 797.172 415.927 797.95 408.214Z" fill="#85A3FF" fill-rule="evenodd"/><path d="M875.341 416.021C874.563 423.733 856.608 428.238 835.237 426.082 813.866 423.926 797.172 415.927 797.95 408.214 798.728 400.502 816.683 395.997 838.054 398.153 859.425 400.309 876.119 408.308 875.341 416.021L841.627 750.239C840.849 757.951 822.894 762.456 801.523 760.3 780.152 758.144 763.458 750.144 764.236 742.432L797.95 408.214" stroke="#3366FF" stroke-width="6.875" stroke-miterlimit="8" fill="none" fill-rule="evenodd"/><path d="M785.5 386.42C795.333 369.457 805.167 352.494 813.5 357.34 821.833 362.187 828.667 388.843 835.5 415.5" stroke="#002060" stroke-width="6.875" stroke-miterlimit="8" fill="none" fill-rule="evenodd"/><path d="M979.655 344.5C976.39 336.661 973.125 328.822 975.099 323.655 977.073 318.488 984.287 315.994 991.5 313.5" stroke="#002060" stroke-width="6.875" stroke-miterlimit="8" fill="none" fill-rule="evenodd"/><path d="M985.884 728.5C983.061 746.766 980.238 765.032 993.247 766.346 1006.26 767.66 1048.23 735.859 1063.94 736.385 1079.65 736.911 1083.57 753.205 1087.5 769.5" stroke="#002060" stroke-width="6.875" stroke-miterlimit="8" fill="none" fill-rule="evenodd"/><path d="M927.325 381.813C927.6 386.639 945.207 389.563 966.652 388.343 988.097 387.123 1005.26 382.221 1004.98 377.394L1024.67 723.312C1024.94 728.138 1007.78 733.04 986.335 734.261 964.89 735.481 947.283 732.557 947.008 727.73Z" fill="#3366FF" fill-rule="evenodd"/><path d="M927.325 381.813C927.051 376.986 944.213 372.084 965.657 370.864 987.102 369.643 1004.71 372.567 1004.98 377.394 1005.26 382.221 988.097 387.123 966.652 388.343 945.207 389.563 927.6 386.639 927.325 381.813Z" fill="#85A3FF" fill-rule="evenodd"/><path d="M1004.98 377.394C1005.26 382.221 988.097 387.123 966.652 388.343 945.207 389.563 927.6 386.639 927.325 381.813 927.051 376.986 944.213 372.084 965.657 370.864 987.102 369.643 1004.71 372.567 1004.98 377.394L1024.67 723.312C1024.94 728.138 1007.78 733.04 986.335 734.261 964.89 735.481 947.283 732.557 947.008 727.73L927.325 381.813" stroke="#3366FF" stroke-width="6.875" stroke-miterlimit="8" fill="none" fill-rule="evenodd"/><path d="M856.5 402.639C856.5 407.687 873.961 411.779 895.5 411.779 917.039 411.779 934.5 407.687 934.5 402.639L934.5 748.361C934.5 753.408 917.039 757.5 895.5 757.5 873.961 757.5 856.5 753.408 856.5 748.361Z" fill="#3366FF" fill-rule="evenodd"/><path d="M856.5 402.639C856.5 397.592 873.961 393.5 895.5 393.5 917.039 393.5 934.5 397.592 934.5 402.639 934.5 407.687 917.039 411.779 895.5 411.779 873.961 411.779 856.5 407.687 856.5 402.639Z" fill="#85A3FF" fill-rule="evenodd"/><path d="M934.5 402.639C934.5 407.687 917.039 411.779 895.5 411.779 873.961 411.779 856.5 407.687 856.5 402.639 856.5 397.592 873.961 393.5 895.5 393.5 917.039 393.5 934.5 397.592 934.5 402.639L934.5 748.361C934.5 753.408 917.039 757.5 895.5 757.5 873.961 757.5 856.5 753.408 856.5 748.361L856.5 402.639" stroke="#3366FF" stroke-width="6.875" stroke-miterlimit="8" fill="none" fill-rule="evenodd"/><path d="M898.301 405.05C896.623 381.8 894.945 358.551 907.457 354.444 919.969 350.337 946.669 365.371 973.37 380.406" stroke="#002060" stroke-width="6.875" stroke-miterlimit="8" fill="none" fill-rule="evenodd"/><path d="M1202.5 428.5C1191.71 450.763 1180.92 473.026 1178.22 491.026 1175.52 509.026 1180.92 522.763 1186.31 536.5" stroke="#FBE3D6" stroke-width="6.875" stroke-linecap="round" stroke-linejoin="round" stroke-miterlimit="10" fill="none" fill-rule="evenodd"/><path d="M1215.32 434.5C1215.48 451.981 1215.63 469.462 1215.32 486.462 1215.02 503.462 1214.26 519.981 1213.5 536.5" stroke="#FBE3D6" stroke-width="6.875" stroke-linecap="round" stroke-linejoin="round" stroke-miterlimit="10" fill="none" fill-rule="evenodd"/><path d="M1171.5 419.5C1171.5 400.722 1185.83 385.5 1203.5 385.5 1221.17 385.5 1235.5 400.722 1235.5 419.5 1235.5 438.278 1221.17 453.5 1203.5 453.5 1185.83 453.5 1171.5 438.278 1171.5 419.5Z" stroke="#FBE3D6" stroke-width="6.875" stroke-miterlimit="8" fill="#FFC000" fill-rule="evenodd"/><path d="M1201.5 662.5C1211.86 640.237 1222.22 617.974 1224.81 599.974 1227.4 581.974 1222.22 568.237 1217.04 554.5" stroke="#FBE3D6" stroke-width="6.875" stroke-linecap="round" stroke-linejoin="round" stroke-miterlimit="10" fill="none" fill-rule="evenodd"/><path d="M1187.68 656.5C1187.52 639.019 1187.37 621.538 1187.68 604.538 1187.98 587.538 1188.74 571.019 1189.5 554.5" stroke="#FBE3D6" stroke-width="6.875" stroke-linecap="round" stroke-linejoin="round" stroke-miterlimit="10" fill="none" fill-rule="evenodd"/><path d="M1231.5 671.5C1231.5 690.278 1217.17 705.5 1199.5 705.5 1181.83 705.5 1167.5 690.278 1167.5 671.5 1167.5 652.722 1181.83 637.5 1199.5 637.5 1217.17 637.5 1231.5 652.722 1231.5 671.5Z" stroke="#FBE3D6" stroke-width="6.875" stroke-miterlimit="8" fill="#FFC000" fill-rule="evenodd"/><path d="M3.4375-0.000948865 3.541 374.959C3.54153 376.857 2.00293 378.397 0.10445 378.397-1.79403 378.398-3.33347 376.859-3.334 374.961L-3.4375 0.000948865C-3.43802-1.89753-1.89943-3.43698-0.000948865-3.4375 1.89753-3.43802 3.43698-1.89943 3.4375-0.000948865ZM19.1073 349.188 0.105384 381.783-18.9145 349.199C-19.8716 347.559-19.3182 345.454-17.6786 344.497-16.039 343.54-13.934 344.093-12.977 345.733L3.07226 373.228-2.86622 373.23 13.1679 345.726C14.124 344.085 16.2287 343.531 17.8688 344.487 19.5089 345.443 20.0634 347.548 19.1073 349.188Z" fill="#FF0000" transform="matrix(-1 0 0 1 523.605 427.5)"/><path d="M930.4 798.695 929.05 797.262 916.949 810.106C916.945 810.109 916.939 810.109 916.936 810.106 916.934 810.104 916.933 810.102 916.933 810.1 913.743 793.09 924.151 776.557 940.178 773.172 953.55 770.348 967.009 777.587 972.771 790.701L974.5 789.843C967.17 773.104 948.442 765.842 932.669 773.621 920.012 779.865 912.737 794.205 914.795 808.856 914.796 808.86 914.794 808.866 914.789 808.867 914.786 808.869 914.782 808.867 914.779 808.864L903.849 797.262 902.5 798.695 916.45 813.5Z" stroke="#FF0000" stroke-width="4.58333" stroke-linecap="round" stroke-linejoin="round" stroke-miterlimit="10" fill="#FF0000" fill-rule="evenodd"/><path d="M959.709 814.343 961.054 815.779 973.375 802.618C973.378 802.614 973.384 802.614 973.388 802.618 973.39 802.62 973.391 802.621 973.391 802.624 975.705 819.76 964.576 835.656 948.534 838.128 947.105 838.348 945.663 838.455 944.22 838.448 933.309 838.459 923.287 832.023 918.179 821.723L916.5 822.676C924.615 839.029 943.604 845.259 958.913 836.591 969.179 830.777 975.597 819.379 975.593 806.966 975.593 806.116 975.556 805.265 975.497 804.417 975.497 804.412 975.502 804.407 975.507 804.407 975.509 804.407 975.511 804.408 975.513 804.409L986.156 815.783 987.5 814.347 973.604 799.5Z" stroke="#FF0000" stroke-width="4.58333" stroke-linecap="round" stroke-linejoin="round" stroke-miterlimit="10" fill="#FF0000" fill-rule="evenodd"/><path d="M504 389.5C504 380.94 510.716 374 519 374 527.284 374 534 380.94 534 389.5 534 398.06 527.284 405 519 405 510.716 405 504 398.06 504 389.5Z" fill="#D86ECC" fill-rule="evenodd" fill-opacity="0.501961"/><path d="M481 356.5C481 347.94 487.492 341 495.5 341 503.508 341 510 347.94 510 356.5 510 365.06 503.508 372 495.5 372 487.492 372 481 365.06 481 356.5Z" fill="#D86ECC" fill-rule="evenodd" fill-opacity="0.501961"/><path d="M530 366C530 357.163 536.492 350 544.5 350 552.508 350 559 357.163 559 366 559 374.836 552.508 382 544.5 382 536.492 382 530 374.836 530 366Z" fill="#D86ECC" fill-rule="evenodd" fill-opacity="0.501961"/><text fill="#6F2DBD" font-family="Arial,Arial_MSFontService,sans-serif" font-weight="700" font-size="55" transform="matrix(1 0 0 1 391.367 280)">Ionotropic</text><text fill="#3366FF" font-family="Arial,Arial_MSFontService,sans-serif" font-weight="700" font-size="55" transform="matrix(1 0 0 1 729.13 280)">Metabotropic</text><path d="M484 741C484 732.163 490.716 725 499 725 507.284 725 514 732.163 514 741 514 749.836 507.284 757 499 757 490.716 757 484 749.836 484 741Z" fill="#D86ECC" fill-rule="evenodd"/><path d="M543 756.5C543 747.94 549.716 741 558 741 566.284 741 573 747.94 573 756.5 573 765.06 566.284 772 558 772 549.716 772 543 765.06 543 756.5Z" fill="#D86ECC" fill-rule="evenodd"/><path d="M432.5 919.9C442.061 924.597 451.623 929.294 458.978 915.069 466.333 900.844 471.727 832.402 476.63 834.549 481.534 836.696 480.063 912.116 488.399 927.952 496.734 943.788 502.128 929.831 526.645 929.562 551.162 929.294 593.331 927.818 635.5 926.342" stroke="#042433" stroke-width="6.875" stroke-miterlimit="8" fill="none" fill-rule="evenodd"/><text font-family="Arial,Arial_MSFontService,sans-serif" font-weight="400" font-size="66" transform="matrix(1 0 0 1 522.496 903)">fast</text><path d="M780.5 923.389C789.941 931.522 799.381 939.654 806.5 930.36 813.619 921.065 800.929 870.237 823.214 867.623 845.5 865.009 901.833 904.801 940.214 914.676 978.595 924.551 1016.05 925.713 1053.5 926.874" stroke="#042433" stroke-width="6.875" stroke-miterlimit="8" fill="none" fill-rule="evenodd"/><text font-family="Arial,Arial_MSFontService,sans-serif" font-weight="400" font-size="66" transform="matrix(1 0 0 1 946.682 905)">slow</text></g></svg>